<svg width="128" height="30" viewBox="0 0 128 30" fill="none" xmlns="http://www.w3.org/2000/svg">
<path d="M9.7 3.728C12.364 3.728 14.692 4.256 16.684 5.312C18.676 6.368 20.212 7.856 21.292 9.776C22.396 11.672 22.948 13.868 22.948 16.364C22.948 18.836 22.396 21.032 21.292 22.952C20.212 24.872 18.664 26.36 16.648 27.416C14.656 28.472 12.34 29 9.7 29H0.232V3.728H9.7ZM9.304 23.672C11.632 23.672 13.444 23.036 14.74 21.764C16.036 20.492 16.684 18.692 16.684 16.364C16.684 14.036 16.036 12.224 14.74 10.928C13.444 9.632 11.632 8.984 9.304 8.984H6.388V23.672H9.304ZM25.1643 18.92C25.1643 16.856 25.5483 15.044 26.3163 13.484C27.1083 11.924 28.1763 10.724 29.5203 9.884C30.8643 9.044 32.3643 8.624 34.0203 8.624C35.4363 8.624 36.6723 8.912 37.7283 9.488C38.8083 10.064 39.6363 10.82 40.2123 11.756V8.912H46.3683V29H40.2123V26.156C39.6123 27.092 38.7723 27.848 37.6923 28.424C36.6363 29 35.4003 29.288 33.9843 29.288C32.3523 29.288 30.8643 28.868 29.5203 28.028C28.1763 27.164 27.1083 25.952 26.3163 24.392C25.5483 22.808 25.1643 20.984 25.1643 18.92ZM40.2123 18.956C40.2123 17.42 39.7803 16.208 38.9163 15.32C38.0763 14.432 37.0443 13.988 35.8203 13.988C34.5963 13.988 33.5523 14.432 32.6883 15.32C31.8483 16.184 31.4283 17.384 31.4283 18.92C31.4283 20.456 31.8483 21.68 32.6883 22.592C33.5523 23.48 34.5963 23.924 35.8203 23.924C37.0443 23.924 38.0763 23.48 38.9163 22.592C39.7803 21.704 40.2123 20.492 40.2123 18.956ZM56.9778 12.26C57.6978 11.156 58.5978 10.292 59.6778 9.668C60.7578 9.02 61.9578 8.696 63.2778 8.696V15.212H61.5858C60.0498 15.212 58.8978 15.548 58.1298 16.22C57.3618 16.868 56.9778 18.02 56.9778 19.676V29H50.8218V8.912H56.9778V12.26ZM95.0563 8.912L89.6203 29H82.8163L79.6483 15.968L76.3723 29H69.6043L64.1323 8.912H70.2883L73.1323 23.276L76.5163 8.912H83.0323L86.4523 23.204L89.2603 8.912H95.0563ZM100.5 6.824C99.4199 6.824 98.5319 6.512 97.8359 5.888C97.1639 5.24 96.8279 4.448 96.8279 3.512C96.8279 2.552 97.1639 1.76 97.8359 1.136C98.5319 0.487998 99.4199 0.163998 100.5 0.163998C101.556 0.163998 102.42 0.487998 103.092 1.136C103.788 1.76 104.136 2.552 104.136 3.512C104.136 4.448 103.788 5.24 103.092 5.888C102.42 6.512 101.556 6.824 100.5 6.824ZM103.56 8.912V29H97.4039V8.912H103.56ZM120.261 8.696C122.613 8.696 124.485 9.464 125.877 11C127.293 12.512 128.001 14.6 128.001 17.264V29H121.881V18.092C121.881 16.748 121.533 15.704 120.837 14.96C120.141 14.216 119.205 13.844 118.029 13.844C116.853 13.844 115.917 14.216 115.221 14.96C114.525 15.704 114.177 16.748 114.177 18.092V29H108.021V8.912H114.177V11.576C114.801 10.688 115.641 9.992 116.697 9.488C117.753 8.96 118.941 8.696 120.261 8.696Z" fill="#4F46E5"/>
</svg>
